<?xml version="1.0" standalone="no"?><!DOCTYPE svg PUBLIC "-//W3C//DTD SVG 1.1//EN" "http://www.w3.org/Graphics/SVG/1.1/DTD/svg11.dtd"><svg width="300" height="690" version="1.1" xmlns="http://www.w3.org/2000/svg" xmlns:xlink="http://www.w3.org/1999/xlink"><defs xmlns="http://www.w3.org/1999/xhtml"><style type="text/css"><![CDATA[
html { }
body { margin: 0px; padding: 33px 0px; font-style: normal; font-variant: normal; font-weight: normal; font-stretch: normal; font-size: 14px; line-height: 1.4; font-family: "Source Sans Pro", Helvetica, Arial, sans-serif; color: rgb(85, 85, 85); }
h1 { margin: 0px 0px 33px; font-size: 20px; color: rgb(102, 102, 102); font-family: "Source Sans Pro", Helvetica, Arial, sans-serif; line-height: 1.3; font-weight: bold; -webkit-font-smoothing: antialiased; }
h2 { font-weight: normal; color: rgb(119, 119, 119); font-size: 13px; font-family: "Source Sans Pro", Helvetica, Arial, sans-serif; margin: -22px 0px 22px; line-height: 1.6; }
h3 { margin: 0px 0px 15px; font-family: "Source Sans Pro", Helvetica, Arial, sans-serif; font-weight: normal; text-transform: uppercase; padding-top: 0px; line-height: 1.2; letter-spacing: 0.05em; -webkit-font-smoothing: antialiased; font-size: 12px; color: rgb(51, 51, 51); }
.nowrap { white-space: nowrap; }
.footnotes { margin-bottom: 20px; }
.footnotes h4 { margin: 2px 0px 7px; color: rgb(102, 102, 102); font-size: 11px; }
.footnotes p, .footer p { margin: 2px 0px 0px; font-size: 12px; line-height: 1.7; color: rgb(153, 153, 153); }
.footer p { font-style: italic; }
.footer p em { font-style: normal; }
.footnotes p strong { color: rgb(102, 102, 102); }
a, a:link, a:visited { color: rgb(71, 116, 204); text-decoration: none; }
a:hover, a:active { color: rgb(188, 202, 229); }
.graphic-wrapper { position: relative; }
.graphic { position: relative; margin-bottom: 11px; }
.graphic::before, .graphic::after { content: " "; display: table; }
.graphic::after { clear: both; }
.graphic img { max-width: 100%; height: auto; }
.key { margin: -11px 0px 33px; padding: 0px; list-style-type: none; font-family: "Source Sans Pro", Helvetica, Arial, sans-serif; }
.key .key-item { display: inline-block; margin: 0px 18px 0px 0px; padding: 0px; line-height: 15px; }
.key .key-item b { display: inline-block; width: 15px; height: 15px; margin-right: 6px; float: left; }
.key .key-item label { white-space: nowrap; font-size: 12px; color: rgb(102, 102, 102); font-weight: normal; -webkit-font-smoothing: antialiased; }
svg { overflow: hidden; }
.axis { font-size: 11px; font-family: "Source Sans Pro", Helvetica, Arial, sans-serif; -webkit-font-smoothing: antialiased; fill: rgb(153, 153, 153); }
.axis path, .axis line { fill: none; stroke: rgb(204, 204, 204); shape-rendering: crispEdges; }
.axis.y path { display: none; }
.axis.y .tick line { display: none; }
.grid path { display: none; }
.grid .tick { stroke: rgb(238, 238, 238); font-family: "Source Sans Pro", Helvetica, Arial, sans-serif; stroke-width: 1px; shape-rendering: crispEdges; }
.grid.y g:first-child line { display: none; }
.zero-line { stroke: rgb(102, 102, 102); stroke-width: 1px; shape-rendering: crispEdges; }
line, rect { shape-rendering: crispEdges; }
.bars rect { fill: rgb(23, 128, 126); }
.labels { position: absolute; font-family: "Source Sans Pro", Helvetica, Arial, sans-serif; margin: 0px; padding: 0px; list-style-type: none; border: none; }
.labels li { position: absolute; text-align: right; font-size: 12px; line-height: 1.3; color: rgb(102, 102, 102); display: table; -webkit-font-smoothing: antialiased; }
.labels li span { display: table-cell; vertical-align: middle; }
.value text { font-size: 11px; font-family: "Source Sans Pro", Helvetica, Arial, sans-serif; -webkit-font-smoothing: antialiased; }
.value text.in { fill: rgb(255, 255, 255); }
.value text.out { fill: rgb(153, 153, 153); }
rect.date { stroke: rgb(255, 255, 255); stroke-width: 1px; }
text.monthlabel, text.daylabel { font-size: 8pt; fill: rgb(153, 153, 153); }
.d3-tip { line-height: 1; padding: 12px; color: rgb(17, 17, 17); border-radius: 2px; min-width: 60px; max-width: 60px; background: rgb(230, 230, 230); }
.d3-tip::after { box-sizing: border-box; display: inline; font-size: 10px; width: 100%; line-height: 1; color: rgb(230, 230, 230); content: "▼"; position: absolute; text-align: center; }
.d3-tip.n::after { margin: -1px 0px 0px; top: 100%; left: 0px; }
.legend-wrapper { width: 100%; }]]></style></defs><g transform="translate(20,20)"><text x="0" y="-25" class="monthlabel" transform="translate(10,21)" style="text-anchor: middle;">J</text><text x="21" y="-25" class="monthlabel" transform="translate(10,21)" style="text-anchor: middle;">F</text><text x="42" y="-25" class="monthlabel" transform="translate(10,21)" style="text-anchor: middle;">M</text><text x="63" y="-25" class="monthlabel" transform="translate(10,21)" style="text-anchor: middle;">A</text><text x="84" y="-25" class="monthlabel" transform="translate(10,21)" style="text-anchor: middle;">M</text><text x="105" y="-25" class="monthlabel" transform="translate(10,21)" style="text-anchor: middle;">J</text><text x="126" y="-25" class="monthlabel" transform="translate(10,21)" style="text-anchor: middle;">J</text><text x="147" y="-25" class="monthlabel" transform="translate(10,21)" style="text-anchor: middle;">A</text><text x="168" y="-25" class="monthlabel" transform="translate(10,21)" style="text-anchor: middle;">S</text><text x="189" y="-25" class="monthlabel" transform="translate(10,21)" style="text-anchor: middle;">O</text><text x="210" y="-25" class="monthlabel" transform="translate(10,21)" style="text-anchor: middle;">N</text><text x="231" y="-25" class="monthlabel" transform="translate(10,21)" style="text-anchor: middle;">D</text><text x="-20" y="15" class="daylabel" transform="translate(14)" style="text-anchor: end;">1</text><text x="-20" y="36" class="daylabel" transform="translate(14)" style="text-anchor: end;">2</text><text x="-20" y="57" class="daylabel" transform="translate(14)" style="text-anchor: end;">3</text><text x="-20" y="78" class="daylabel" transform="translate(14)" style="text-anchor: end;">4</text><text x="-20" y="99" class="daylabel" transform="translate(14)" style="text-anchor: end;">5</text><text x="-20" y="120" class="daylabel" transform="translate(14)" style="text-anchor: end;">6</text><text x="-20" y="141" class="daylabel" transform="translate(14)" style="text-anchor: end;">7</text><text x="-20" y="162" class="daylabel" transform="translate(14)" style="text-anchor: end;">8</text><text x="-20" y="183" class="daylabel" transform="translate(14)" style="text-anchor: end;">9</text><text x="-20" y="204" class="daylabel" transform="translate(14)" style="text-anchor: end;">10</text><text x="-20" y="225" class="daylabel" transform="translate(14)" style="text-anchor: end;">11</text><text x="-20" y="246" class="daylabel" transform="translate(14)" style="text-anchor: end;">12</text><text x="-20" y="267" class="daylabel" transform="translate(14)" style="text-anchor: end;">13</text><text x="-20" y="288" class="daylabel" transform="translate(14)" style="text-anchor: end;">14</text><text x="-20" y="309" class="daylabel" transform="translate(14)" style="text-anchor: end;">15</text><text x="-20" y="330" class="daylabel" transform="translate(14)" style="text-anchor: end;">16</text><text x="-20" y="351" class="daylabel" transform="translate(14)" style="text-anchor: end;">17</text><text x="-20" y="372" class="daylabel" transform="translate(14)" style="text-anchor: end;">18</text><text x="-20" y="393" class="daylabel" transform="translate(14)" style="text-anchor: end;">19</text><text x="-20" y="414" class="daylabel" transform="translate(14)" style="text-anchor: end;">20</text><text x="-20" y="435" class="daylabel" transform="translate(14)" style="text-anchor: end;">21</text><text x="-20" y="456" class="daylabel" transform="translate(14)" style="text-anchor: end;">22</text><text x="-20" y="477" class="daylabel" transform="translate(14)" style="text-anchor: end;">23</text><text x="-20" y="498" class="daylabel" transform="translate(14)" style="text-anchor: end;">24</text><text x="-20" y="519" class="daylabel" transform="translate(14)" style="text-anchor: end;">25</text><text x="-20" y="540" class="daylabel" transform="translate(14)" style="text-anchor: end;">26</text><text x="-20" y="561" class="daylabel" transform="translate(14)" style="text-anchor: end;">27</text><text x="-20" y="582" class="daylabel" transform="translate(14)" style="text-anchor: end;">28</text><text x="-20" y="603" class="daylabel" transform="translate(14)" style="text-anchor: end;">29</text><text x="-20" y="624" class="daylabel" transform="translate(14)" style="text-anchor: end;">30</text><text x="-20" y="645" class="daylabel" transform="translate(14)" style="text-anchor: end;">31</text><rect class="date" x="231" y="504" rx="0" ry="0" width="21" height="21" style="fill: rgb(255, 255, 204);"/><rect class="date" x="0" y="0" rx="0" ry="0" width="21" height="21" style="fill: rgb(255, 255, 204);"/><rect class="date" x="231" y="483" rx="0" ry="0" width="21" height="21" style="fill: rgb(255, 255, 204);"/><rect class="date" x="126" y="63" rx="0" ry="0" width="21" height="21" style="fill: rgb(255, 255, 204);"/><rect class="date" x="0" y="21" rx="0" ry="0" width="21" height="21" style="fill: rgb(255, 237, 160);"/><rect class="date" x="210" y="462" rx="0" ry="0" width="21" height="21" style="fill: rgb(255, 237, 160);"/><rect class="date" x="231" y="525" rx="0" ry="0" width="21" height="21" style="fill: rgb(255, 237, 160);"/><rect class="date" x="210" y="546" rx="0" ry="0" width="21" height="21" style="fill: rgb(255, 237, 160);"/><rect class="date" x="210" y="483" rx="0" ry="0" width="21" height="21" style="fill: rgb(255, 237, 160);"/><rect class="date" x="210" y="504" rx="0" ry="0" width="21" height="21" style="fill: rgb(255, 237, 160);"/><rect class="date" x="189" y="630" rx="0" ry="0" width="21" height="21" style="fill: rgb(255, 237, 160);"/><rect class="date" x="63" y="0" rx="0" ry="0" width="21" height="21" style="fill: rgb(255, 237, 160);"/><rect class="date" x="210" y="567" rx="0" ry="0" width="21" height="21" style="fill: rgb(255, 237, 160);"/><rect class="date" x="84" y="525" rx="0" ry="0" width="21" height="21" style="fill: rgb(255, 237, 160);"/><rect class="date" x="210" y="525" rx="0" ry="0" width="21" height="21" style="fill: rgb(255, 237, 160);"/><rect class="date" x="63" y="252" rx="0" ry="0" width="21" height="21" style="fill: rgb(254, 217, 118);"/><rect class="date" x="231" y="462" rx="0" ry="0" width="21" height="21" style="fill: rgb(254, 217, 118);"/><rect class="date" x="84" y="546" rx="0" ry="0" width="21" height="21" style="fill: rgb(254, 217, 118);"/><rect class="date" x="231" y="630" rx="0" ry="0" width="21" height="21" style="fill: rgb(254, 217, 118);"/><rect class="date" x="0" y="252" rx="0" ry="0" width="21" height="21" style="fill: rgb(254, 217, 118);"/><rect class="date" x="126" y="84" rx="0" ry="0" width="21" height="21" style="fill: rgb(254, 217, 118);"/><rect class="date" x="63" y="105" rx="0" ry="0" width="21" height="21" style="fill: rgb(254, 217, 118);"/><rect class="date" x="63" y="546" rx="0" ry="0" width="21" height="21" style="fill: rgb(254, 217, 118);"/><rect class="date" x="42" y="609" rx="0" ry="0" width="21" height="21" style="fill: rgb(254, 217, 118);"/><rect class="date" x="84" y="252" rx="0" ry="0" width="21" height="21" style="fill: rgb(254, 217, 118);"/><rect class="date" x="63" y="399" rx="0" ry="0" width="21" height="21" style="fill: rgb(254, 217, 118);"/><rect class="date" x="0" y="378" rx="0" ry="0" width="21" height="21" style="fill: rgb(254, 217, 118);"/><rect class="date" x="189" y="252" rx="0" ry="0" width="21" height="21" style="fill: rgb(254, 217, 118);"/><rect class="date" x="0" y="294" rx="0" ry="0" width="21" height="21" style="fill: rgb(254, 217, 118);"/><rect class="date" x="210" y="441" rx="0" ry="0" width="21" height="21" style="fill: rgb(254, 217, 118);"/><rect class="date" x="42" y="630" rx="0" ry="0" width="21" height="21" style="fill: rgb(254, 217, 118);"/><rect class="date" x="84" y="63" rx="0" ry="0" width="21" height="21" style="fill: rgb(254, 217, 118);"/><rect class="date" x="63" y="588" rx="0" ry="0" width="21" height="21" style="fill: rgb(254, 217, 118);"/><rect class="date" x="231" y="126" rx="0" ry="0" width="21" height="21" style="fill: rgb(254, 217, 118);"/><rect class="date" x="63" y="420" rx="0" ry="0" width="21" height="21" style="fill: rgb(254, 217, 118);"/><rect class="date" x="84" y="210" rx="0" ry="0" width="21" height="21" style="fill: rgb(254, 217, 118);"/><rect class="date" x="42" y="462" rx="0" ry="0" width="21" height="21" style="fill: rgb(254, 217, 118);"/><rect class="date" x="0" y="588" rx="0" ry="0" width="21" height="21" style="fill: rgb(254, 217, 118);"/><rect class="date" x="63" y="567" rx="0" ry="0" width="21" height="21" style="fill: rgb(254, 217, 118);"/><rect class="date" x="63" y="273" rx="0" ry="0" width="21" height="21" style="fill: rgb(254, 217, 118);"/><rect class="date" x="0" y="399" rx="0" ry="0" width="21" height="21" style="fill: rgb(254, 217, 118);"/><rect class="date" x="42" y="168" rx="0" ry="0" width="21" height="21" style="fill: rgb(254, 217, 118);"/><rect class="date" x="0" y="168" rx="0" ry="0" width="21" height="21" style="fill: rgb(254, 217, 118);"/><rect class="date" x="0" y="315" rx="0" ry="0" width="21" height="21" style="fill: rgb(254, 217, 118);"/><rect class="date" x="21" y="336" rx="0" ry="0" width="21" height="21" style="fill: rgb(254, 217, 118);"/><rect class="date" x="42" y="315" rx="0" ry="0" width="21" height="21" style="fill: rgb(254, 217, 118);"/><rect class="date" x="21" y="252" rx="0" ry="0" width="21" height="21" style="fill: rgb(254, 217, 118);"/><rect class="date" x="21" y="42" rx="0" ry="0" width="21" height="21" style="fill: rgb(254, 217, 118);"/><rect class="date" x="0" y="546" rx="0" ry="0" width="21" height="21" style="fill: rgb(254, 217, 118);"/><rect class="date" x="21" y="588" rx="0" ry="0" width="21" height="21" style="fill: rgb(254, 217, 118);"/><rect class="date" x="42" y="21" rx="0" ry="0" width="21" height="21" style="fill: rgb(254, 217, 118);"/><rect class="date" x="63" y="126" rx="0" ry="0" width="21" height="21" style="fill: rgb(254, 217, 118);"/><rect class="date" x="0" y="147" rx="0" ry="0" width="21" height="21" style="fill: rgb(254, 217, 118);"/><rect class="date" x="0" y="525" rx="0" ry="0" width="21" height="21" style="fill: rgb(254, 217, 118);"/><rect class="date" x="168" y="0" rx="0" ry="0" width="21" height="21" style="fill: rgb(254, 217, 118);"/><rect class="date" x="210" y="609" rx="0" ry="0" width="21" height="21" style="fill: rgb(254, 217, 118);"/><rect class="date" x="21" y="378" rx="0" ry="0" width="21" height="21" style="fill: rgb(254, 217, 118);"/><rect class="date" x="84" y="567" rx="0" ry="0" width="21" height="21" style="fill: rgb(254, 217, 118);"/><rect class="date" x="231" y="147" rx="0" ry="0" width="21" height="21" style="fill: rgb(254, 217, 118);"/><rect class="date" x="231" y="168" rx="0" ry="0" width="21" height="21" style="fill: rgb(254, 217, 118);"/><rect class="date" x="63" y="441" rx="0" ry="0" width="21" height="21" style="fill: rgb(254, 178, 76);"/><rect class="date" x="189" y="378" rx="0" ry="0" width="21" height="21" style="fill: rgb(254, 178, 76);"/><rect class="date" x="0" y="441" rx="0" ry="0" width="21" height="21" style="fill: rgb(254, 178, 76);"/><rect class="date" x="210" y="588" rx="0" ry="0" width="21" height="21" style="fill: rgb(254, 178, 76);"/><rect class="date" x="63" y="294" rx="0" ry="0" width="21" height="21" style="fill: rgb(254, 178, 76);"/><rect class="date" x="84" y="504" rx="0" ry="0" width="21" height="21" style="fill: rgb(254, 178, 76);"/><rect class="date" x="21" y="84" rx="0" ry="0" width="21" height="21" style="fill: rgb(254, 178, 76);"/><rect class="date" x="63" y="609" rx="0" ry="0" width="21" height="21" style="fill: rgb(254, 178, 76);"/><rect class="date" x="21" y="483" rx="0" ry="0" width="21" height="21" style="fill: rgb(254, 178, 76);"/><rect class="date" x="168" y="21" rx="0" ry="0" width="21" height="21" style="fill: rgb(254, 178, 76);"/><rect class="date" x="42" y="483" rx="0" ry="0" width="21" height="21" style="fill: rgb(254, 178, 76);"/><rect class="date" x="21" y="168" rx="0" ry="0" width="21" height="21" style="fill: rgb(254, 178, 76);"/><rect class="date" x="0" y="105" rx="0" ry="0" width="21" height="21" style="fill: rgb(254, 178, 76);"/><rect class="date" x="63" y="147" rx="0" ry="0" width="21" height="21" style="fill: rgb(254, 178, 76);"/><rect class="date" x="84" y="357" rx="0" ry="0" width="21" height="21" style="fill: rgb(254, 178, 76);"/><rect class="date" x="42" y="189" rx="0" ry="0" width="21" height="21" style="fill: rgb(254, 178, 76);"/><rect class="date" x="42" y="210" rx="0" ry="0" width="21" height="21" style="fill: rgb(254, 178, 76);"/><rect class="date" x="21" y="462" rx="0" ry="0" width="21" height="21" style="fill: rgb(254, 178, 76);"/><rect class="date" x="0" y="420" rx="0" ry="0" width="21" height="21" style="fill: rgb(254, 178, 76);"/><rect class="date" x="21" y="525" rx="0" ry="0" width="21" height="21" style="fill: rgb(254, 178, 76);"/><rect class="date" x="0" y="609" rx="0" ry="0" width="21" height="21" style="fill: rgb(254, 178, 76);"/><rect class="date" x="0" y="231" rx="0" ry="0" width="21" height="21" style="fill: rgb(254, 178, 76);"/><rect class="date" x="210" y="168" rx="0" ry="0" width="21" height="21" style="fill: rgb(254, 178, 76);"/><rect class="date" x="189" y="525" rx="0" ry="0" width="21" height="21" style="fill: rgb(254, 178, 76);"/><rect class="date" x="42" y="357" rx="0" ry="0" width="21" height="21" style="fill: rgb(254, 178, 76);"/><rect class="date" x="231" y="273" rx="0" ry="0" width="21" height="21" style="fill: rgb(254, 178, 76);"/><rect class="date" x="21" y="315" rx="0" ry="0" width="21" height="21" style="fill: rgb(254, 178, 76);"/><rect class="date" x="0" y="567" rx="0" ry="0" width="21" height="21" style="fill: rgb(254, 178, 76);"/><rect class="date" x="84" y="105" rx="0" ry="0" width="21" height="21" style="fill: rgb(254, 178, 76);"/><rect class="date" x="84" y="378" rx="0" ry="0" width="21" height="21" style="fill: rgb(254, 178, 76);"/><rect class="date" x="21" y="21" rx="0" ry="0" width="21" height="21" style="fill: rgb(254, 178, 76);"/><rect class="date" x="0" y="84" rx="0" ry="0" width="21" height="21" style="fill: rgb(254, 178, 76);"/><rect class="date" x="21" y="105" rx="0" ry="0" width="21" height="21" style="fill: rgb(254, 178, 76);"/><rect class="date" x="84" y="231" rx="0" ry="0" width="21" height="21" style="fill: rgb(254, 178, 76);"/><rect class="date" x="42" y="252" rx="0" ry="0" width="21" height="21" style="fill: rgb(254, 178, 76);"/><rect class="date" x="63" y="168" rx="0" ry="0" width="21" height="21" style="fill: rgb(254, 178, 76);"/><rect class="date" x="42" y="504" rx="0" ry="0" width="21" height="21" style="fill: rgb(254, 178, 76);"/><rect class="date" x="189" y="546" rx="0" ry="0" width="21" height="21" style="fill: rgb(254, 178, 76);"/><rect class="date" x="42" y="63" rx="0" ry="0" width="21" height="21" style="fill: rgb(254, 178, 76);"/><rect class="date" x="21" y="189" rx="0" ry="0" width="21" height="21" style="fill: rgb(254, 178, 76);"/><rect class="date" x="63" y="462" rx="0" ry="0" width="21" height="21" style="fill: rgb(254, 178, 76);"/><rect class="date" x="84" y="630" rx="0" ry="0" width="21" height="21" style="fill: rgb(254, 178, 76);"/><rect class="date" x="231" y="252" rx="0" ry="0" width="21" height="21" style="fill: rgb(254, 178, 76);"/><rect class="date" x="21" y="63" rx="0" ry="0" width="21" height="21" style="fill: rgb(254, 178, 76);"/><rect class="date" x="105" y="147" rx="0" ry="0" width="21" height="21" style="fill: rgb(254, 178, 76);"/><rect class="date" x="210" y="189" rx="0" ry="0" width="21" height="21" style="fill: rgb(254, 178, 76);"/><rect class="date" x="42" y="588" rx="0" ry="0" width="21" height="21" style="fill: rgb(254, 178, 76);"/><rect class="date" x="0" y="462" rx="0" ry="0" width="21" height="21" style="fill: rgb(254, 178, 76);"/><rect class="date" x="189" y="399" rx="0" ry="0" width="21" height="21" style="fill: rgb(254, 178, 76);"/><rect class="date" x="21" y="546" rx="0" ry="0" width="21" height="21" style="fill: rgb(254, 178, 76);"/><rect class="date" x="42" y="525" rx="0" ry="0" width="21" height="21" style="fill: rgb(254, 178, 76);"/><rect class="date" x="21" y="357" rx="0" ry="0" width="21" height="21" style="fill: rgb(254, 178, 76);"/><rect class="date" x="189" y="231" rx="0" ry="0" width="21" height="21" style="fill: rgb(254, 178, 76);"/><rect class="date" x="210" y="315" rx="0" ry="0" width="21" height="21" style="fill: rgb(254, 178, 76);"/><rect class="date" x="84" y="84" rx="0" ry="0" width="21" height="21" style="fill: rgb(254, 178, 76);"/><rect class="date" x="105" y="168" rx="0" ry="0" width="21" height="21" style="fill: rgb(254, 178, 76);"/><rect class="date" x="42" y="378" rx="0" ry="0" width="21" height="21" style="fill: rgb(254, 178, 76);"/><rect class="date" x="63" y="525" rx="0" ry="0" width="21" height="21" style="fill: rgb(254, 178, 76);"/><rect class="date" x="84" y="588" rx="0" ry="0" width="21" height="21" style="fill: rgb(254, 178, 76);"/><rect class="date" x="189" y="420" rx="0" ry="0" width="21" height="21" style="fill: rgb(254, 178, 76);"/><rect class="date" x="63" y="315" rx="0" ry="0" width="21" height="21" style="fill: rgb(254, 178, 76);"/><rect class="date" x="63" y="378" rx="0" ry="0" width="21" height="21" style="fill: rgb(254, 178, 76);"/><rect class="date" x="210" y="252" rx="0" ry="0" width="21" height="21" style="fill: rgb(254, 178, 76);"/><rect class="date" x="63" y="84" rx="0" ry="0" width="21" height="21" style="fill: rgb(254, 178, 76);"/><rect class="date" x="0" y="126" rx="0" ry="0" width="21" height="21" style="fill: rgb(254, 178, 76);"/><rect class="date" x="105" y="294" rx="0" ry="0" width="21" height="21" style="fill: rgb(254, 178, 76);"/><rect class="date" x="0" y="357" rx="0" ry="0" width="21" height="21" style="fill: rgb(254, 178, 76);"/><rect class="date" x="42" y="42" rx="0" ry="0" width="21" height="21" style="fill: rgb(254, 178, 76);"/><rect class="date" x="21" y="399" rx="0" ry="0" width="21" height="21" style="fill: rgb(254, 178, 76);"/><rect class="date" x="210" y="21" rx="0" ry="0" width="21" height="21" style="fill: rgb(254, 178, 76);"/><rect class="date" x="84" y="42" rx="0" ry="0" width="21" height="21" style="fill: rgb(254, 178, 76);"/><rect class="date" x="84" y="126" rx="0" ry="0" width="21" height="21" style="fill: rgb(254, 178, 76);"/><rect class="date" x="210" y="336" rx="0" ry="0" width="21" height="21" style="fill: rgb(254, 178, 76);"/><rect class="date" x="21" y="231" rx="0" ry="0" width="21" height="21" style="fill: rgb(254, 178, 76);"/><rect class="date" x="42" y="84" rx="0" ry="0" width="21" height="21" style="fill: rgb(254, 178, 76);"/><rect class="date" x="21" y="504" rx="0" ry="0" width="21" height="21" style="fill: rgb(254, 178, 76);"/><rect class="date" x="210" y="42" rx="0" ry="0" width="21" height="21" style="fill: rgb(254, 178, 76);"/><rect class="date" x="0" y="273" rx="0" ry="0" width="21" height="21" style="fill: rgb(254, 178, 76);"/><rect class="date" x="42" y="336" rx="0" ry="0" width="21" height="21" style="fill: rgb(254, 178, 76);"/><rect class="date" x="231" y="105" rx="0" ry="0" width="21" height="21" style="fill: rgb(253, 141, 60);"/><rect class="date" x="189" y="567" rx="0" ry="0" width="21" height="21" style="fill: rgb(253, 141, 60);"/><rect class="date" x="231" y="189" rx="0" ry="0" width="21" height="21" style="fill: rgb(253, 141, 60);"/><rect class="date" x="105" y="441" rx="0" ry="0" width="21" height="21" style="fill: rgb(253, 141, 60);"/><rect class="date" x="21" y="0" rx="0" ry="0" width="21" height="21" style="fill: rgb(253, 141, 60);"/><rect class="date" x="210" y="63" rx="0" ry="0" width="21" height="21" style="fill: rgb(253, 141, 60);"/><rect class="date" x="210" y="210" rx="0" ry="0" width="21" height="21" style="fill: rgb(253, 141, 60);"/><rect class="date" x="0" y="504" rx="0" ry="0" width="21" height="21" style="fill: rgb(253, 141, 60);"/><rect class="date" x="0" y="42" rx="0" ry="0" width="21" height="21" style="fill: rgb(253, 141, 60);"/><rect class="date" x="42" y="231" rx="0" ry="0" width="21" height="21" style="fill: rgb(253, 141, 60);"/><rect class="date" x="21" y="210" rx="0" ry="0" width="21" height="21" style="fill: rgb(253, 141, 60);"/><rect class="date" x="42" y="441" rx="0" ry="0" width="21" height="21" style="fill: rgb(253, 141, 60);"/><rect class="date" x="189" y="273" rx="0" ry="0" width="21" height="21" style="fill: rgb(253, 141, 60);"/><rect class="date" x="63" y="231" rx="0" ry="0" width="21" height="21" style="fill: rgb(253, 141, 60);"/><rect class="date" x="189" y="609" rx="0" ry="0" width="21" height="21" style="fill: rgb(253, 141, 60);"/><rect class="date" x="231" y="294" rx="0" ry="0" width="21" height="21" style="fill: rgb(253, 141, 60);"/><rect class="date" x="42" y="147" rx="0" ry="0" width="21" height="21" style="fill: rgb(253, 141, 60);"/><rect class="date" x="63" y="21" rx="0" ry="0" width="21" height="21" style="fill: rgb(253, 141, 60);"/><rect class="date" x="0" y="630" rx="0" ry="0" width="21" height="21" style="fill: rgb(253, 141, 60);"/><rect class="date" x="0" y="210" rx="0" ry="0" width="21" height="21" style="fill: rgb(253, 141, 60);"/><rect class="date" x="210" y="357" rx="0" ry="0" width="21" height="21" style="fill: rgb(253, 141, 60);"/><rect class="date" x="84" y="399" rx="0" ry="0" width="21" height="21" style="fill: rgb(253, 141, 60);"/><rect class="date" x="231" y="21" rx="0" ry="0" width="21" height="21" style="fill: rgb(253, 141, 60);"/><rect class="date" x="189" y="588" rx="0" ry="0" width="21" height="21" style="fill: rgb(253, 141, 60);"/><rect class="date" x="0" y="336" rx="0" ry="0" width="21" height="21" style="fill: rgb(253, 141, 60);"/><rect class="date" x="231" y="0" rx="0" ry="0" width="21" height="21" style="fill: rgb(253, 141, 60);"/><rect class="date" x="105" y="0" rx="0" ry="0" width="21" height="21" style="fill: rgb(253, 141, 60);"/><rect class="date" x="126" y="252" rx="0" ry="0" width="21" height="21" style="fill: rgb(253, 141, 60);"/><rect class="date" x="63" y="189" rx="0" ry="0" width="21" height="21" style="fill: rgb(253, 141, 60);"/><rect class="date" x="63" y="483" rx="0" ry="0" width="21" height="21" style="fill: rgb(253, 141, 60);"/><rect class="date" x="168" y="42" rx="0" ry="0" width="21" height="21" style="fill: rgb(253, 141, 60);"/><rect class="date" x="105" y="462" rx="0" ry="0" width="21" height="21" style="fill: rgb(253, 141, 60);"/><rect class="date" x="42" y="294" rx="0" ry="0" width="21" height="21" style="fill: rgb(253, 141, 60);"/><rect class="date" x="84" y="273" rx="0" ry="0" width="21" height="21" style="fill: rgb(253, 141, 60);"/><rect class="date" x="105" y="189" rx="0" ry="0" width="21" height="21" style="fill: rgb(253, 141, 60);"/><rect class="date" x="105" y="42" rx="0" ry="0" width="21" height="21" style="fill: rgb(253, 141, 60);"/><rect class="date" x="210" y="231" rx="0" ry="0" width="21" height="21" style="fill: rgb(253, 141, 60);"/><rect class="date" x="42" y="546" rx="0" ry="0" width="21" height="21" style="fill: rgb(253, 141, 60);"/><rect class="date" x="42" y="105" rx="0" ry="0" width="21" height="21" style="fill: rgb(253, 141, 60);"/><rect class="date" x="63" y="42" rx="0" ry="0" width="21" height="21" style="fill: rgb(253, 141, 60);"/><rect class="date" x="105" y="315" rx="0" ry="0" width="21" height="21" style="fill: rgb(253, 141, 60);"/><rect class="date" x="231" y="210" rx="0" ry="0" width="21" height="21" style="fill: rgb(253, 141, 60);"/><rect class="date" x="0" y="63" rx="0" ry="0" width="21" height="21" style="fill: rgb(253, 141, 60);"/><rect class="date" x="105" y="336" rx="0" ry="0" width="21" height="21" style="fill: rgb(253, 141, 60);"/><rect class="date" x="63" y="336" rx="0" ry="0" width="21" height="21" style="fill: rgb(253, 141, 60);"/><rect class="date" x="21" y="147" rx="0" ry="0" width="21" height="21" style="fill: rgb(253, 141, 60);"/><rect class="date" x="84" y="189" rx="0" ry="0" width="21" height="21" style="fill: rgb(253, 141, 60);"/><rect class="date" x="21" y="420" rx="0" ry="0" width="21" height="21" style="fill: rgb(253, 141, 60);"/><rect class="date" x="189" y="84" rx="0" ry="0" width="21" height="21" style="fill: rgb(253, 141, 60);"/><rect class="date" x="105" y="21" rx="0" ry="0" width="21" height="21" style="fill: rgb(253, 141, 60);"/><rect class="date" x="189" y="105" rx="0" ry="0" width="21" height="21" style="fill: rgb(253, 141, 60);"/><rect class="date" x="84" y="336" rx="0" ry="0" width="21" height="21" style="fill: rgb(253, 141, 60);"/><rect class="date" x="42" y="0" rx="0" ry="0" width="21" height="21" style="fill: rgb(253, 141, 60);"/><rect class="date" x="84" y="147" rx="0" ry="0" width="21" height="21" style="fill: rgb(253, 141, 60);"/><rect class="date" x="231" y="42" rx="0" ry="0" width="21" height="21" style="fill: rgb(253, 141, 60);"/><rect class="date" x="231" y="63" rx="0" ry="0" width="21" height="21" style="fill: rgb(253, 141, 60);"/><rect class="date" x="21" y="441" rx="0" ry="0" width="21" height="21" style="fill: rgb(253, 141, 60);"/><rect class="date" x="105" y="210" rx="0" ry="0" width="21" height="21" style="fill: rgb(253, 141, 60);"/><rect class="date" x="105" y="483" rx="0" ry="0" width="21" height="21" style="fill: rgb(253, 141, 60);"/><rect class="date" x="189" y="126" rx="0" ry="0" width="21" height="21" style="fill: rgb(253, 141, 60);"/><rect class="date" x="189" y="441" rx="0" ry="0" width="21" height="21" style="fill: rgb(253, 141, 60);"/><rect class="date" x="189" y="357" rx="0" ry="0" width="21" height="21" style="fill: rgb(253, 141, 60);"/><rect class="date" x="105" y="126" rx="0" ry="0" width="21" height="21" style="fill: rgb(253, 141, 60);"/><rect class="date" x="0" y="483" rx="0" ry="0" width="21" height="21" style="fill: rgb(253, 141, 60);"/><rect class="date" x="84" y="609" rx="0" ry="0" width="21" height="21" style="fill: rgb(253, 141, 60);"/><rect class="date" x="63" y="357" rx="0" ry="0" width="21" height="21" style="fill: rgb(253, 141, 60);"/><rect class="date" x="105" y="63" rx="0" ry="0" width="21" height="21" style="fill: rgb(253, 141, 60);"/><rect class="date" x="210" y="84" rx="0" ry="0" width="21" height="21" style="fill: rgb(253, 141, 60);"/><rect class="date" x="21" y="567" rx="0" ry="0" width="21" height="21" style="fill: rgb(253, 141, 60);"/><rect class="date" x="84" y="0" rx="0" ry="0" width="21" height="21" style="fill: rgb(253, 141, 60);"/><rect class="date" x="0" y="189" rx="0" ry="0" width="21" height="21" style="fill: rgb(253, 141, 60);"/><rect class="date" x="147" y="42" rx="0" ry="0" width="21" height="21" style="fill: rgb(253, 141, 60);"/><rect class="date" x="63" y="504" rx="0" ry="0" width="21" height="21" style="fill: rgb(253, 141, 60);"/><rect class="date" x="42" y="399" rx="0" ry="0" width="21" height="21" style="fill: rgb(253, 141, 60);"/><rect class="date" x="231" y="315" rx="0" ry="0" width="21" height="21" style="fill: rgb(253, 141, 60);"/><rect class="date" x="189" y="504" rx="0" ry="0" width="21" height="21" style="fill: rgb(253, 141, 60);"/><rect class="date" x="210" y="147" rx="0" ry="0" width="21" height="21" style="fill: rgb(252, 78, 42);"/><rect class="date" x="231" y="441" rx="0" ry="0" width="21" height="21" style="fill: rgb(252, 78, 42);"/><rect class="date" x="105" y="252" rx="0" ry="0" width="21" height="21" style="fill: rgb(252, 78, 42);"/><rect class="date" x="105" y="588" rx="0" ry="0" width="21" height="21" style="fill: rgb(252, 78, 42);"/><rect class="date" x="21" y="294" rx="0" ry="0" width="21" height="21" style="fill: rgb(252, 78, 42);"/><rect class="date" x="84" y="168" rx="0" ry="0" width="21" height="21" style="fill: rgb(252, 78, 42);"/><rect class="date" x="42" y="567" rx="0" ry="0" width="21" height="21" style="fill: rgb(252, 78, 42);"/><rect class="date" x="189" y="294" rx="0" ry="0" width="21" height="21" style="fill: rgb(252, 78, 42);"/><rect class="date" x="189" y="462" rx="0" ry="0" width="21" height="21" style="fill: rgb(252, 78, 42);"/><rect class="date" x="84" y="420" rx="0" ry="0" width="21" height="21" style="fill: rgb(252, 78, 42);"/><rect class="date" x="210" y="294" rx="0" ry="0" width="21" height="21" style="fill: rgb(252, 78, 42);"/><rect class="date" x="126" y="546" rx="0" ry="0" width="21" height="21" style="fill: rgb(252, 78, 42);"/><rect class="date" x="210" y="105" rx="0" ry="0" width="21" height="21" style="fill: rgb(252, 78, 42);"/><rect class="date" x="63" y="210" rx="0" ry="0" width="21" height="21" style="fill: rgb(252, 78, 42);"/><rect class="date" x="42" y="126" rx="0" ry="0" width="21" height="21" style="fill: rgb(252, 78, 42);"/><rect class="date" x="210" y="378" rx="0" ry="0" width="21" height="21" style="fill: rgb(252, 78, 42);"/><rect class="date" x="21" y="126" rx="0" ry="0" width="21" height="21" style="fill: rgb(252, 78, 42);"/><rect class="date" x="126" y="399" rx="0" ry="0" width="21" height="21" style="fill: rgb(252, 78, 42);"/><rect class="date" x="189" y="210" rx="0" ry="0" width="21" height="21" style="fill: rgb(252, 78, 42);"/><rect class="date" x="147" y="483" rx="0" ry="0" width="21" height="21" style="fill: rgb(252, 78, 42);"/><rect class="date" x="189" y="315" rx="0" ry="0" width="21" height="21" style="fill: rgb(252, 78, 42);"/><rect class="date" x="189" y="147" rx="0" ry="0" width="21" height="21" style="fill: rgb(252, 78, 42);"/><rect class="date" x="105" y="420" rx="0" ry="0" width="21" height="21" style="fill: rgb(252, 78, 42);"/><rect class="date" x="84" y="21" rx="0" ry="0" width="21" height="21" style="fill: rgb(252, 78, 42);"/><rect class="date" x="105" y="273" rx="0" ry="0" width="21" height="21" style="fill: rgb(252, 78, 42);"/><rect class="date" x="189" y="168" rx="0" ry="0" width="21" height="21" style="fill: rgb(252, 78, 42);"/><rect class="date" x="168" y="126" rx="0" ry="0" width="21" height="21" style="fill: rgb(252, 78, 42);"/><rect class="date" x="231" y="84" rx="0" ry="0" width="21" height="21" style="fill: rgb(252, 78, 42);"/><rect class="date" x="42" y="273" rx="0" ry="0" width="21" height="21" style="fill: rgb(252, 78, 42);"/><rect class="date" x="105" y="357" rx="0" ry="0" width="21" height="21" style="fill: rgb(252, 78, 42);"/><rect class="date" x="168" y="609" rx="0" ry="0" width="21" height="21" style="fill: rgb(252, 78, 42);"/><rect class="date" x="105" y="84" rx="0" ry="0" width="21" height="21" style="fill: rgb(252, 78, 42);"/><rect class="date" x="147" y="189" rx="0" ry="0" width="21" height="21" style="fill: rgb(252, 78, 42);"/><rect class="date" x="105" y="378" rx="0" ry="0" width="21" height="21" style="fill: rgb(252, 78, 42);"/><rect class="date" x="168" y="63" rx="0" ry="0" width="21" height="21" style="fill: rgb(252, 78, 42);"/><rect class="date" x="84" y="294" rx="0" ry="0" width="21" height="21" style="fill: rgb(252, 78, 42);"/><rect class="date" x="126" y="105" rx="0" ry="0" width="21" height="21" style="fill: rgb(252, 78, 42);"/><rect class="date" x="105" y="609" rx="0" ry="0" width="21" height="21" style="fill: rgb(252, 78, 42);"/><rect class="date" x="147" y="63" rx="0" ry="0" width="21" height="21" style="fill: rgb(252, 78, 42);"/><rect class="date" x="210" y="0" rx="0" ry="0" width="21" height="21" style="fill: rgb(252, 78, 42);"/><rect class="date" x="42" y="420" rx="0" ry="0" width="21" height="21" style="fill: rgb(252, 78, 42);"/><rect class="date" x="168" y="588" rx="0" ry="0" width="21" height="21" style="fill: rgb(252, 78, 42);"/><rect class="date" x="147" y="504" rx="0" ry="0" width="21" height="21" style="fill: rgb(252, 78, 42);"/><rect class="date" x="63" y="63" rx="0" ry="0" width="21" height="21" style="fill: rgb(252, 78, 42);"/><rect class="date" x="147" y="210" rx="0" ry="0" width="21" height="21" style="fill: rgb(252, 78, 42);"/><rect class="date" x="105" y="231" rx="0" ry="0" width="21" height="21" style="fill: rgb(252, 78, 42);"/><rect class="date" x="84" y="483" rx="0" ry="0" width="21" height="21" style="fill: rgb(252, 78, 42);"/><rect class="date" x="105" y="504" rx="0" ry="0" width="21" height="21" style="fill: rgb(252, 78, 42);"/><rect class="date" x="147" y="336" rx="0" ry="0" width="21" height="21" style="fill: rgb(252, 78, 42);"/><rect class="date" x="126" y="567" rx="0" ry="0" width="21" height="21" style="fill: rgb(252, 78, 42);"/><rect class="date" x="147" y="630" rx="0" ry="0" width="21" height="21" style="fill: rgb(252, 78, 42);"/><rect class="date" x="210" y="273" rx="0" ry="0" width="21" height="21" style="fill: rgb(252, 78, 42);"/><rect class="date" x="126" y="588" rx="0" ry="0" width="21" height="21" style="fill: rgb(252, 78, 42);"/><rect class="date" x="168" y="567" rx="0" ry="0" width="21" height="21" style="fill: rgb(252, 78, 42);"/><rect class="date" x="147" y="84" rx="0" ry="0" width="21" height="21" style="fill: rgb(252, 78, 42);"/><rect class="date" x="105" y="105" rx="0" ry="0" width="21" height="21" style="fill: rgb(252, 78, 42);"/><rect class="date" x="147" y="252" rx="0" ry="0" width="21" height="21" style="fill: rgb(227, 26, 28);"/><rect class="date" x="147" y="525" rx="0" ry="0" width="21" height="21" style="fill: rgb(227, 26, 28);"/><rect class="date" x="189" y="483" rx="0" ry="0" width="21" height="21" style="fill: rgb(227, 26, 28);"/><rect class="date" x="147" y="378" rx="0" ry="0" width="21" height="21" style="fill: rgb(227, 26, 28);"/><rect class="date" x="84" y="441" rx="0" ry="0" width="21" height="21" style="fill: rgb(227, 26, 28);"/><rect class="date" x="126" y="420" rx="0" ry="0" width="21" height="21" style="fill: rgb(227, 26, 28);"/><rect class="date" x="210" y="126" rx="0" ry="0" width="21" height="21" style="fill: rgb(227, 26, 28);"/><rect class="date" x="84" y="315" rx="0" ry="0" width="21" height="21" style="fill: rgb(227, 26, 28);"/><rect class="date" x="126" y="273" rx="0" ry="0" width="21" height="21" style="fill: rgb(227, 26, 28);"/><rect class="date" x="147" y="357" rx="0" ry="0" width="21" height="21" style="fill: rgb(227, 26, 28);"/><rect class="date" x="168" y="105" rx="0" ry="0" width="21" height="21" style="fill: rgb(227, 26, 28);"/><rect class="date" x="189" y="336" rx="0" ry="0" width="21" height="21" style="fill: rgb(227, 26, 28);"/><rect class="date" x="231" y="336" rx="0" ry="0" width="21" height="21" style="fill: rgb(227, 26, 28);"/><rect class="date" x="126" y="441" rx="0" ry="0" width="21" height="21" style="fill: rgb(227, 26, 28);"/><rect class="date" x="231" y="420" rx="0" ry="0" width="21" height="21" style="fill: rgb(227, 26, 28);"/><rect class="date" x="126" y="42" rx="0" ry="0" width="21" height="21" style="fill: rgb(227, 26, 28);"/><rect class="date" x="189" y="63" rx="0" ry="0" width="21" height="21" style="fill: rgb(227, 26, 28);"/><rect class="date" x="147" y="105" rx="0" ry="0" width="21" height="21" style="fill: rgb(227, 26, 28);"/><rect class="date" x="105" y="525" rx="0" ry="0" width="21" height="21" style="fill: rgb(227, 26, 28);"/><rect class="date" x="126" y="231" rx="0" ry="0" width="21" height="21" style="fill: rgb(227, 26, 28);"/><rect class="date" x="126" y="378" rx="0" ry="0" width="21" height="21" style="fill: rgb(227, 26, 28);"/><rect class="date" x="126" y="294" rx="0" ry="0" width="21" height="21" style="fill: rgb(227, 26, 28);"/><rect class="date" x="147" y="231" rx="0" ry="0" width="21" height="21" style="fill: rgb(227, 26, 28);"/><rect class="date" x="105" y="567" rx="0" ry="0" width="21" height="21" style="fill: rgb(227, 26, 28);"/><rect class="date" x="126" y="525" rx="0" ry="0" width="21" height="21" style="fill: rgb(227, 26, 28);"/><rect class="date" x="147" y="21" rx="0" ry="0" width="21" height="21" style="fill: rgb(227, 26, 28);"/><rect class="date" x="126" y="609" rx="0" ry="0" width="21" height="21" style="fill: rgb(227, 26, 28);"/><rect class="date" x="231" y="231" rx="0" ry="0" width="21" height="21" style="fill: rgb(227, 26, 28);"/><rect class="date" x="210" y="399" rx="0" ry="0" width="21" height="21" style="fill: rgb(227, 26, 28);"/><rect class="date" x="105" y="399" rx="0" ry="0" width="21" height="21" style="fill: rgb(227, 26, 28);"/><rect class="date" x="168" y="420" rx="0" ry="0" width="21" height="21" style="fill: rgb(227, 26, 28);"/><rect class="date" x="126" y="0" rx="0" ry="0" width="21" height="21" style="fill: rgb(227, 26, 28);"/><rect class="date" x="126" y="462" rx="0" ry="0" width="21" height="21" style="fill: rgb(227, 26, 28);"/><rect class="date" x="147" y="462" rx="0" ry="0" width="21" height="21" style="fill: rgb(227, 26, 28);"/><rect class="date" x="168" y="210" rx="0" ry="0" width="21" height="21" style="fill: rgb(227, 26, 28);"/><rect class="date" x="126" y="630" rx="0" ry="0" width="21" height="21" style="fill: rgb(227, 26, 28);"/><rect class="date" x="231" y="567" rx="0" ry="0" width="21" height="21" style="fill: rgb(227, 26, 28);"/><rect class="date" x="189" y="0" rx="0" ry="0" width="21" height="21" style="fill: rgb(227, 26, 28);"/><rect class="date" x="168" y="84" rx="0" ry="0" width="21" height="21" style="fill: rgb(227, 26, 28);"/><rect class="date" x="168" y="441" rx="0" ry="0" width="21" height="21" style="fill: rgb(227, 26, 28);"/><rect class="date" x="84" y="462" rx="0" ry="0" width="21" height="21" style="fill: rgb(227, 26, 28);"/><rect class="date" x="147" y="546" rx="0" ry="0" width="21" height="21" style="fill: rgb(227, 26, 28);"/><rect class="date" x="168" y="273" rx="0" ry="0" width="21" height="21" style="fill: rgb(227, 26, 28);"/><rect class="date" x="189" y="189" rx="0" ry="0" width="21" height="21" style="fill: rgb(227, 26, 28);"/><rect class="date" x="147" y="168" rx="0" ry="0" width="21" height="21" style="fill: rgb(227, 26, 28);"/><rect class="date" x="231" y="609" rx="0" ry="0" width="21" height="21" style="fill: rgb(227, 26, 28);"/><rect class="date" x="231" y="546" rx="0" ry="0" width="21" height="21" style="fill: rgb(227, 26, 28);"/><rect class="date" x="210" y="420" rx="0" ry="0" width="21" height="21" style="fill: rgb(227, 26, 28);"/><rect class="date" x="126" y="147" rx="0" ry="0" width="21" height="21" style="fill: rgb(227, 26, 28);"/><rect class="date" x="126" y="315" rx="0" ry="0" width="21" height="21" style="fill: rgb(227, 26, 28);"/><rect class="date" x="126" y="168" rx="0" ry="0" width="21" height="21" style="fill: rgb(227, 26, 28);"/><rect class="date" x="147" y="399" rx="0" ry="0" width="21" height="21" style="fill: rgb(227, 26, 28);"/><rect class="date" x="147" y="126" rx="0" ry="0" width="21" height="21" style="fill: rgb(227, 26, 28);"/><rect class="date" x="231" y="588" rx="0" ry="0" width="21" height="21" style="fill: rgb(227, 26, 28);"/><rect class="date" x="168" y="147" rx="0" ry="0" width="21" height="21" style="fill: rgb(227, 26, 28);"/><rect class="date" x="105" y="546" rx="0" ry="0" width="21" height="21" style="fill: rgb(227, 26, 28);"/><rect class="date" x="21" y="273" rx="0" ry="0" width="21" height="21" style="fill: rgb(227, 26, 28);"/><rect class="date" x="189" y="21" rx="0" ry="0" width="21" height="21" style="fill: rgb(227, 26, 28);"/><rect class="date" x="126" y="483" rx="0" ry="0" width="21" height="21" style="fill: rgb(227, 26, 28);"/><rect class="date" x="147" y="315" rx="0" ry="0" width="21" height="21" style="fill: rgb(227, 26, 28);"/><rect class="date" x="168" y="462" rx="0" ry="0" width="21" height="21" style="fill: rgb(227, 26, 28);"/><rect class="date" x="126" y="21" rx="0" ry="0" width="21" height="21" style="fill: rgb(227, 26, 28);"/><rect class="date" x="168" y="252" rx="0" ry="0" width="21" height="21" style="fill: rgb(227, 26, 28);"/><rect class="date" x="147" y="420" rx="0" ry="0" width="21" height="21" style="fill: rgb(227, 26, 28);"/><rect class="date" x="147" y="609" rx="0" ry="0" width="21" height="21" style="fill: rgb(227, 26, 28);"/><rect class="date" x="147" y="273" rx="0" ry="0" width="21" height="21" style="fill: rgb(227, 26, 28);"/><rect class="date" x="189" y="42" rx="0" ry="0" width="21" height="21" style="fill: rgb(227, 26, 28);"/><rect class="date" x="126" y="126" rx="0" ry="0" width="21" height="21" style="fill: rgb(227, 26, 28);"/><rect class="date" x="168" y="546" rx="0" ry="0" width="21" height="21" style="fill: rgb(227, 26, 28);"/><rect class="date" x="168" y="294" rx="0" ry="0" width="21" height="21" style="fill: rgb(227, 26, 28);"/><rect class="date" x="168" y="315" rx="0" ry="0" width="21" height="21" style="fill: rgb(227, 26, 28);"/><rect class="date" x="231" y="357" rx="0" ry="0" width="21" height="21" style="fill: rgb(227, 26, 28);"/><rect class="date" x="126" y="336" rx="0" ry="0" width="21" height="21" style="fill: rgb(227, 26, 28);"/><rect class="date" x="126" y="189" rx="0" ry="0" width="21" height="21" style="fill: rgb(227, 26, 28);"/><rect class="date" x="126" y="504" rx="0" ry="0" width="21" height="21" style="fill: rgb(227, 26, 28);"/><rect class="date" x="168" y="483" rx="0" ry="0" width="21" height="21" style="fill: rgb(189, 0, 38);"/><rect class="date" x="147" y="0" rx="0" ry="0" width="21" height="21" style="fill: rgb(189, 0, 38);"/><rect class="date" x="126" y="210" rx="0" ry="0" width="21" height="21" style="fill: rgb(189, 0, 38);"/><rect class="date" x="126" y="357" rx="0" ry="0" width="21" height="21" style="fill: rgb(189, 0, 38);"/><rect class="date" x="147" y="441" rx="0" ry="0" width="21" height="21" style="fill: rgb(189, 0, 38);"/><rect class="date" x="147" y="567" rx="0" ry="0" width="21" height="21" style="fill: rgb(189, 0, 38);"/><rect class="date" x="231" y="399" rx="0" ry="0" width="21" height="21" style="fill: rgb(189, 0, 38);"/><rect class="date" x="168" y="504" rx="0" ry="0" width="21" height="21" style="fill: rgb(189, 0, 38);"/><rect class="date" x="168" y="168" rx="0" ry="0" width="21" height="21" style="fill: rgb(189, 0, 38);"/><rect class="date" x="147" y="294" rx="0" ry="0" width="21" height="21" style="fill: rgb(189, 0, 38);"/><rect class="date" x="147" y="588" rx="0" ry="0" width="21" height="21" style="fill: rgb(189, 0, 38);"/><rect class="date" x="168" y="189" rx="0" ry="0" width="21" height="21" style="fill: rgb(189, 0, 38);"/><rect class="date" x="147" y="147" rx="0" ry="0" width="21" height="21" style="fill: rgb(189, 0, 38);"/><rect class="date" x="168" y="336" rx="0" ry="0" width="21" height="21" style="fill: rgb(189, 0, 38);"/><rect class="date" x="168" y="399" rx="0" ry="0" width="21" height="21" style="fill: rgb(189, 0, 38);"/><rect class="date" x="231" y="378" rx="0" ry="0" width="21" height="21" style="fill: rgb(189, 0, 38);"/><rect class="date" x="168" y="525" rx="0" ry="0" width="21" height="21" style="fill: rgb(189, 0, 38);"/><rect class="date" x="168" y="357" rx="0" ry="0" width="21" height="21" style="fill: rgb(128, 0, 38);"/><rect class="date" x="168" y="231" rx="0" ry="0" width="21" height="21" style="fill: rgb(128, 0, 38);"/><rect class="date" x="168" y="378" rx="0" ry="0" width="21" height="21" style="fill: rgb(128, 0, 38);"/></g></svg>